# xmcd
#
# Track frame offsets: 
#        150
#        11249
#        23993
#        33369
#        48337
#        60888
#        73534
#        86961
#        101287
#        113183
#        126353
#        139971
#        151265
#        163564
#        174853
#        188104
#        202070
#        215953
#        229193
#        241018
#
# Disc length: 3416 seconds
#
# Revision: 1
# Processed by: cddbd v1.5.2PL0 Copyright (c) Steve Scherf et al.
# Submitted via: ExactAudioCopyFreeDBPlugin 1.0
#
DISCID=140d5614
DTITLE=Various Artist - Lady Sings The Blues (100 Hits)
DYEAR=2006
DGENRE=Blues
TTITLE0=Maxine Brown - All In My Mind
TTITLE1=Dinah Washington - All Or Nothin' Blues
TTITLE2=Della Reese - Don't You Know
TTITLE3=Rosa Henderson - Can't Be Bothered With No Sheik
TTITLE4=Lena Horne - Careless Love
TTITLE5=Little Mae Kirkman - He's Just My Size
TTITLE6=Memphis Minnie - Ice Man
TTITLE7=Bessie Smith - I'm Down In The Dumps
TTITLE8=Annie Laurie - It's Been A Long Time
TTITLE9=Billie Holiday - My Man
TTITLE10=Lil Johnson - Sam The Hot Dog Man
TTITLE11=Linda Hayes - Take Me Back
TTITLE12=Big Maybelle - Way Back Home
TTITLE13=Ruth Brown - Wild Wild Young Men
TTITLE14=Bessie Smith - Baby Won't You Please Come Home
TTITLE15=Alice Moore - I'm Going Fishing Too
TTITLE16=Ella Fitzgerald - My Heart Belongs To Daddy
TTITLE17=Sarah Vaughan - A Hundred Years From Today
TTITLE18=Carmen McRae - Don't Ever Leave Me
TTITLE19=Dinah Washington - Crazy Love
EXTD=
EXTT0=
EXTT1=
EXTT2=
EXTT3=
EXTT4=
EXTT5=
EXTT6=
EXTT7=
EXTT8=
EXTT9=
EXTT10=
EXTT11=
EXTT12=
EXTT13=
EXTT14=
EXTT15=
EXTT16=
EXTT17=
EXTT18=
EXTT19=
PLAYORDER=
